<svg width="21" height="20" viewBox="0 0 21 20" fill="none" xmlns="http://www.w3.org/2000/svg">
<g clip-path="url(#clip0_20_1046)">
<path d="M17.5 20H3.5C2.59202 20.0185 1.71375 19.6763 1.05767 19.0483C0.401598 18.4204 0.0212515 17.5579 0 16.65L0 3.35C0.0212515 2.44208 0.401598 1.57963 1.05767 0.951669C1.71375 0.323712 2.59202 -0.0185159 3.5 -3.36696e-06H17.5C18.408 -0.0185159 19.2863 0.323712 19.9423 0.951669C20.5984 1.57963 20.9787 2.44208 21 3.35V16.65C20.9787 17.5579 20.5984 18.4204 19.9423 19.0483C19.2863 19.6763 18.408 20.0185 17.5 20ZM15.286 8.775L10.572 13.028L15.961 19H17.5C18.1428 19.0186 18.7668 18.7817 19.2353 18.3413C19.7039 17.9009 19.9788 17.2927 20 16.65V13.071L15.286 8.775ZM7.147 10.725L1.009 16.849C1.08478 17.4521 1.38132 18.0057 1.84136 18.4029C2.3014 18.8002 2.89232 19.0129 3.5 19H14.613L7.147 10.725ZM3.5 0.999997C2.8572 0.981396 2.23322 1.21824 1.76467 1.65869C1.29611 2.09913 1.02116 2.70728 1 3.35V15.45L6.814 9.65C6.86197 9.60219 6.91916 9.56462 6.98208 9.53958C7.04501 9.51454 7.11237 9.50254 7.18007 9.50432C7.24778 9.5061 7.31441 9.52161 7.37594 9.54992C7.43747 9.57822 7.4926 9.61874 7.538 9.669L9.9 12.286L14.951 7.729C15.0429 7.6458 15.1625 7.59973 15.2865 7.59973C15.4105 7.59973 15.5301 7.6458 15.622 7.729L20 11.718V3.35C19.9788 2.70728 19.7039 2.09913 19.2353 1.65869C18.7668 1.21824 18.1428 0.981396 17.5 0.999997H3.5ZM6.69 6.7C6.30944 6.69921 5.93766 6.58563 5.62162 6.37363C5.30558 6.16163 5.05947 5.86071 4.91439 5.50889C4.7693 5.15708 4.73175 4.77015 4.80648 4.397C4.88121 4.02385 5.06486 3.68122 5.33423 3.41241C5.60361 3.14359 5.94662 2.96065 6.31992 2.8867C6.69322 2.81274 7.08007 2.8511 7.43159 2.99691C7.7831 3.14273 8.08351 3.38946 8.29486 3.70594C8.5062 4.02242 8.619 4.39444 8.619 4.775C8.61794 5.28573 8.41438 5.7752 8.05295 6.13607C7.69152 6.49693 7.20074 6.69973 6.69 6.7ZM6.69 3.851C6.50722 3.85179 6.32878 3.90671 6.17719 4.00883C6.0256 4.11095 5.90767 4.25569 5.83827 4.42478C5.76887 4.59387 5.75112 4.77973 5.78726 4.95889C5.82341 5.13806 5.91182 5.30251 6.04134 5.43147C6.17086 5.56044 6.33569 5.64814 6.51501 5.6835C6.69433 5.71887 6.88011 5.70032 7.0489 5.6302C7.21769 5.56007 7.36192 5.44151 7.46338 5.28948C7.56485 5.13745 7.619 4.95877 7.619 4.776C7.61847 4.53022 7.52047 4.2947 7.34649 4.12109C7.17251 3.94749 6.93677 3.85 6.691 3.85L6.69 3.851Z" fill="#D5D5DC"/>
</g>
<defs>
<clipPath id="clip0_20_1046">
<rect width="21" height="20" fill="white"/>
</clipPath>
</defs>
</svg>
