<svg width="22" height="20" viewBox="0 0 22 20" fill="none" xmlns="http://www.w3.org/2000/svg">
<path d="M11 19.566C10.4792 19.567 9.97869 19.3638 9.60599 19L9.56599 18.961L1.83799 11.014C0.658906 9.79037 0.00012207 8.15727 0.00012207 6.458C0.00012207 4.75873 0.658906 3.12563 1.83799 1.902C2.41697 1.3007 3.11131 0.822374 3.87945 0.495657C4.64759 0.168939 5.47375 0.00054159 6.30849 0.00054159C7.14323 0.00054159 7.96939 0.168939 8.73753 0.495657C9.50567 0.822374 10.2 1.3007 10.779 1.902L11 2.129L11.221 1.901C11.7999 1.29957 12.4942 0.821136 13.2624 0.494338C14.0305 0.167541 14.8567 -0.000900269 15.6915 -0.000900269C16.5263 -0.000900269 17.3525 0.167541 18.1206 0.494338C18.8888 0.821136 19.5831 1.29957 20.162 1.901C21.3411 3.12463 21.9999 4.75773 21.9999 6.457C21.9999 8.15627 21.3411 9.78937 20.162 11.013L12.434 18.96C12.2482 19.1526 12.0254 19.3055 11.779 19.4097C11.5325 19.5138 11.2675 19.567 11 19.566ZM6.30799 2C5.74043 2.0008 5.1789 2.11638 4.65716 2.33979C4.13542 2.56319 3.66425 2.88981 3.27199 3.3C2.45581 4.15014 2.00004 5.28299 2.00004 6.4615C2.00004 7.64001 2.45581 8.77286 3.27199 9.623L11 17.565L18.728 9.619C19.5442 8.76886 19.9999 7.63601 19.9999 6.4575C19.9999 5.27899 19.5442 4.14614 18.728 3.296C18.3355 2.88627 17.8641 2.56022 17.3423 2.33748C16.8204 2.11473 16.2589 1.9999 15.6915 1.9999C15.1241 1.9999 14.5626 2.11473 14.0407 2.33748C13.5189 2.56022 13.0475 2.88627 12.655 3.296L11.717 4.261C11.6238 4.35686 11.5123 4.43306 11.3892 4.48509C11.266 4.53712 11.1337 4.56393 11 4.56393C10.8663 4.56393 10.734 4.53712 10.6108 4.48509C10.4877 4.43306 10.3762 4.35686 10.283 4.261L9.34499 3.3C8.95261 2.88969 8.48128 2.563 7.95936 2.33959C7.43744 2.11618 6.87572 2.00067 6.30799 2Z" fill="#9D9DAF"/>
</svg>
