<svg width="20" height="19" viewBox="0 0 20 19" fill="none" xmlns="http://www.w3.org/2000/svg">
<path d="M5.14402 19C4.73759 18.9992 4.34796 18.8377 4.06019 18.5507C3.77242 18.2636 3.60987 17.8744 3.60802 17.468V15.153C2.58725 14.9044 1.6784 14.3227 1.02502 13.5C0.358328 12.6666 -0.00334572 11.6303 2.33261e-05 10.563V4.72C-0.000510415 3.47044 0.494682 2.2717 1.37694 1.38681C2.2592 0.501929 3.45647 0.00317808 4.70602 0H15.294C16.5436 0.00317808 17.7408 0.501929 18.6231 1.38681C19.5054 2.2717 20.0006 3.47044 20 4.72V10.563C20.0003 11.8124 19.505 13.0109 18.6228 13.8955C17.7405 14.7802 16.5434 15.2788 15.294 15.282H10.514L6.06502 18.682C5.80171 18.8871 5.47777 18.9989 5.14402 19ZM4.70602 2C3.98674 2.00265 3.29787 2.29051 2.79057 2.80044C2.28327 3.31037 1.99896 4.00071 2.00002 4.72V10.563C1.9974 11.2723 2.27274 11.9543 2.76702 12.463C3.256 12.971 3.92518 13.2662 4.63002 13.285C4.89086 13.2908 5.13897 13.3989 5.32082 13.5859C5.50266 13.773 5.60366 14.0241 5.60202 14.285V16.522L9.56402 13.493C9.73892 13.3602 9.95243 13.2882 10.172 13.288H15.29C15.6469 13.2872 16.0002 13.2161 16.3296 13.0787C16.659 12.9413 16.9581 12.7403 17.2098 12.4872C17.4615 12.2341 17.6609 11.9339 17.7964 11.6037C17.932 11.2736 18.0012 10.9199 18 10.563V4.72C18.0011 4.00071 17.7168 3.31037 17.2095 2.80044C16.7022 2.29051 16.0133 2.00265 15.294 2H4.70602Z" fill="#9D9DAF"/>
</svg>
