<svg width="22" height="22" viewBox="0 0 22 22" fill="none" xmlns="http://www.w3.org/2000/svg">
<path d="M22 18C21.9992 17.1461 21.7252 16.3149 21.2181 15.6279C20.711 14.9409 19.9973 14.4342 19.1815 14.182C18.3657 13.9298 17.4906 13.9452 16.6843 14.2261C15.8779 14.507 15.1825 15.0385 14.7 15.743L7.79999 12.257C8.07935 11.4111 8.0688 10.4962 7.76999 9.657L14.712 6.273C15.2567 7.05923 16.0651 7.62425 16.9906 7.86561C17.9162 8.10696 18.8975 8.00868 19.7568 7.58858C20.6161 7.16848 21.2964 6.45438 21.6744 5.57574C22.0524 4.69711 22.103 3.71212 21.8171 2.79937C21.5312 1.88662 20.9277 1.10653 20.116 0.600554C19.3043 0.0945773 18.3381 -0.103793 17.3927 0.0414117C16.4473 0.186616 15.5853 0.665782 14.9628 1.39203C14.3404 2.11827 13.9988 3.04352 14 4C14 4.12934 14.006 4.257 14.018 4.383L6.62699 7.983C6.0452 7.47525 5.32889 7.14674 4.56451 7.03715C3.80013 6.92755 3.02037 7.04155 2.31936 7.36538C1.61834 7.6892 1.02604 8.20902 0.613965 8.86207C0.201885 9.51512 -0.0123586 10.2735 -0.00290443 11.0456C0.00654979 11.8178 0.239298 12.5707 0.667243 13.2134C1.09519 13.8562 1.70004 14.3614 2.40877 14.6679C3.1175 14.9745 3.89982 15.0694 4.66129 14.9411C5.42275 14.8128 6.13081 14.4669 6.69999 13.945L14.012 17.638C14.004 17.7573 14 17.878 14 18C14 19.0609 14.4214 20.0783 15.1716 20.8284C15.9217 21.5786 16.9391 22 18 22C19.0609 22 20.0783 21.5786 20.8284 20.8284C21.5786 20.0783 22 19.0609 22 18ZM20 18C20 18.3956 19.8827 18.7822 19.6629 19.1111C19.4432 19.44 19.1308 19.6964 18.7654 19.8478C18.3999 19.9991 17.9978 20.0387 17.6098 19.9616C17.2218 19.8844 16.8655 19.6939 16.5858 19.4142C16.3061 19.1345 16.1156 18.7781 16.0384 18.3902C15.9612 18.0022 16.0009 17.6001 16.1522 17.2346C16.3036 16.8692 16.5599 16.5568 16.8888 16.3371C17.2177 16.1173 17.6044 16 18 16C18.5304 16 19.0391 16.2107 19.4142 16.5858C19.7893 16.9609 20 17.4696 20 18ZM5.99999 11C5.99999 11.3956 5.88269 11.7822 5.66293 12.1111C5.44316 12.44 5.13081 12.6964 4.76535 12.8478C4.3999 12.9991 3.99777 13.0387 3.60981 12.9616C3.22184 12.8844 2.86548 12.6939 2.58577 12.4142C2.30607 12.1345 2.11559 11.7781 2.03842 11.3902C1.96125 11.0022 2.00085 10.6001 2.15223 10.2346C2.3036 9.86919 2.55995 9.55683 2.88885 9.33707C3.21774 9.1173 3.60442 9 3.99999 9C4.53042 9 5.03913 9.21072 5.4142 9.58579C5.78927 9.96086 5.99999 10.4696 5.99999 11ZM20 4C20 4.39557 19.8827 4.78225 19.6629 5.11114C19.4432 5.44004 19.1308 5.69639 18.7654 5.84776C18.3999 5.99914 17.9978 6.03875 17.6098 5.96158C17.2218 5.8844 16.8655 5.69392 16.5858 5.41422C16.3061 5.13451 16.1156 4.77815 16.0384 4.39018C15.9612 4.00222 16.0009 3.60009 16.1522 3.23464C16.3036 2.86919 16.5599 2.55683 16.8888 2.33707C17.2177 2.1173 17.6044 2 18 2C18.5304 2 19.0391 2.21072 19.4142 2.58579C19.7893 2.96086 20 3.46957 20 4Z" fill="#9D9DAF"/>
</svg>
